<?xml version="1.0" encoding="UTF-8" standalone="no"?>
<!DOCTYPE svg PUBLIC "-//W3C//DTD SVG 1.1//EN" "http://www.w3.org/Graphics/SVG/1.1/DTD/svg11.dtd">
<svg width="100%" height="100%" viewBox="0 0 2000 2000" version="1.1" xmlns="http://www.w3.org/2000/svg" xmlns:xlink="http://www.w3.org/1999/xlink" xml:space="preserve" xmlns:serif="http://www.serif.com/" style="fill-rule:evenodd;clip-rule:evenodd;stroke-linejoin:round;stroke-miterlimit:2;">
    <g transform="matrix(3.905895,0,0,3.905895,1505.059696,1575.885867)">
        <path d="M0,-220.604L-129.174,0L-258.328,-220.604L0,-220.604Z" style="fill:rgb(213,1,0);fill-rule:nonzero;"/>
    </g>
    <g transform="matrix(3.905895,0,0,3.905895,1482.715636,0)">
        <path d="M0,150.296L-246.887,150.296L-123.453,0L0,150.296Z" style="fill:rgb(213,1,0);fill-rule:nonzero;"/>
    </g>
    <g transform="matrix(3.905895,0,0,3.905895,398.980288,1618.295679)">
        <path d="M0,-212.594L124.299,0L-69.436,-29.146L0,-212.594Z" style="fill:rgb(213,1,0);fill-rule:nonzero;"/>
    </g>
    <g transform="matrix(3.905895,0,0,3.905895,362.149265,2000)">
        <path d="M0,-87.438L146.587,-63.435L146.587,0L0,-87.438Z" style="fill:rgb(213,1,0);fill-rule:nonzero;"/>
    </g>
    <g transform="matrix(3.905895,0,0,3.905895,102.104574,563.613546)">
        <path d="M0,173.289L53.489,27.803L2.052,0L0,173.289Z" style="fill:rgb(213,1,0);fill-rule:nonzero;"/>
    </g>
    <g transform="matrix(3.905895,0,0,3.905895,750.549071,571.405806)">
        <path d="M0,-116.013C-31.241,-77.342 -62.483,-38.671 -93.724,0C-111.822,-10.097 -129.919,-20.193 -148.016,-30.289C-98.677,-58.864 -49.339,-87.438 0,-116.013" style="fill:rgb(213,1,0);fill-rule:nonzero;"/>
    </g>
    <g transform="matrix(3.905895,0,0,3.905895,1601.818467,1618.295679)">
        <path d="M0,-212.594L-123.965,0L69.249,-29.146L0,-212.594Z" style="fill:rgb(213,1,0);fill-rule:nonzero;"/>
    </g>
    <g transform="matrix(3.905895,0,0,3.905895,1638.550671,2000)">
        <path d="M0,-87.438L-146.193,-63.435L-146.193,0L0,-87.438Z" style="fill:rgb(213,1,0);fill-rule:nonzero;"/>
    </g>
    <g transform="matrix(3.905895,0,0,3.905895,1897.895426,563.613546)">
        <path d="M0,173.289L-53.345,27.803L-2.047,0L0,173.289Z" style="fill:rgb(213,1,0);fill-rule:nonzero;"/>
    </g>
    <g transform="matrix(3.905895,0,0,3.905895,1251.195301,571.405806)">
        <path d="M0,-116.013C31.157,-77.342 62.315,-38.671 93.472,0C111.521,-10.097 129.569,-20.193 147.618,-30.289C98.412,-58.864 49.206,-87.438 0,-116.013" style="fill:rgb(213,1,0);fill-rule:nonzero;"/>
    </g>
    <g transform="matrix(3.905895,0,0,3.905895,1018.74263,1290.264206)">
        <path d="M0,-83.72C-1.714,-81.68 -3.369,-80.129 -4.652,-79.033C-5.841,-80.106 -7.333,-81.563 -8.907,-83.405C-9.14,-83.673 -12.148,-87.217 -14.468,-91.403C-17.476,-96.836 -24.121,-108.832 -19.563,-118.964C-17.546,-123.446 -14.088,-125.937 -13.524,-126.332C-12.177,-127.275 -9.068,-129.39 -4.652,-129.398C0.605,-129.408 4.189,-126.427 5.538,-125.271C8.544,-122.693 10.021,-119.638 10.703,-117.798C14.048,-108.762 9.175,-99.307 5.188,-91.566C3.346,-87.999 1.504,-85.504 0,-83.72M4.932,-75.058C21.628,-93.946 25.066,-116.288 16.007,-128.034C12.216,-132.95 4.6,-138.13 -4.652,-138.13C-13.904,-138.13 -21.519,-132.95 -25.311,-128.034C-34.37,-116.288 -30.931,-93.946 -14.235,-75.058C-35.384,-76.375 -56.544,-77.681 -77.704,-78.998C-72.924,-77.704 -65.369,-74.999 -57.814,-69.007C-52.976,-65.16 -49.572,-61.103 -47.275,-57.85L-10.364,-62.21C-11.997,-33.46 -13.629,-4.722 -15.249,24.028C-13.104,27.992 -10.866,32.772 -8.895,38.321C-6.785,44.267 -5.479,49.735 -4.652,54.41C-3.824,49.735 -2.518,44.267 -0.408,38.321C1.562,32.772 3.801,27.992 5.958,24.028C4.325,-4.722 2.693,-33.46 1.061,-62.21L37.972,-57.85C40.268,-61.103 43.673,-65.16 48.523,-69.007C56.066,-74.999 63.62,-77.704 68.4,-78.998C47.24,-77.681 26.092,-76.375 4.932,-75.058"/>
    </g>
</svg>
